<svg width="17" height="23" viewBox="0 0 17 23" fill="none" xmlns="http://www.w3.org/2000/svg">
<path d="M16.5332 12.995C16.1211 8.99875 15.4886 6.29625 14.5782 4.74375L14.5302 4.69583C14.5302 4.69583 14.4919 4.6575 14.4727 4.61917C14.4344 4.57125 14.3865 4.51375 14.3386 4.45625C14.1182 4.30292 13.9648 4.12083 13.8115 3.92917C13.7732 3.89083 13.7348 3.86208 13.6869 3.84292L13.6198 3.77583C13.5527 3.70875 13.4761 3.65125 13.409 3.59375C13.1311 3.35417 12.9011 3.20083 12.6807 3.11458C12.6807 2.8175 12.6136 2.49167 12.4986 2.185L12.4794 2.13708C12.4219 1.99333 12.3644 1.85917 12.2877 1.73458C11.6744 0.594167 10.3519 0 8.43525 0C8.37775 0 8.32025 0 8.26275 0H8.18608C8.18608 0 8.12858 0 8.09983 0H7.93692C7.93692 0 7.87942 0.00958333 7.85067 0.00958333H7.774C7.774 0.00958333 7.70692 0.0191667 7.66858 0.02875H7.62067C7.62067 0.02875 7.544 0.0383333 7.50567 0.0479167H7.47692C7.47692 0.0479167 7.39067 0.0670833 7.35233 0.0670833H7.34275C6.87317 0.134167 6.44192 0.25875 6.06817 0.421667H6.05858C6.05858 0.421667 6.00108 0.46 5.96275 0.469583L5.92442 0.48875C5.92442 0.48875 5.8765 0.507917 5.85733 0.527083C5.83817 0.536667 5.80942 0.555833 5.79025 0.565417L5.7615 0.584583C5.34942 0.814583 5.014 1.11167 4.75525 1.46625C4.41025 1.93583 4.21858 2.48208 4.209 3.105C4.19942 3.105 4.18983 3.105 4.18025 3.11458C3.9215 3.21042 3.64358 3.42125 3.27942 3.78542L3.12608 3.93875C3.12608 3.93875 3.09733 3.9675 3.09733 3.97708C3.03025 4.05375 2.95358 4.13042 2.8865 4.20708C2.80025 4.29333 2.714 4.37958 2.63733 4.485C2.56067 4.6 2.49358 4.66708 2.44567 4.715C1.45858 6.21 0.778167 8.72083 0.404417 12.1517C0.404417 12.1613 0.404417 12.1708 0.404417 12.19C0.318167 13.0238 0.2415 13.8383 0.184 14.6913V14.7679C0.0306667 16.8475 -0.0268333 19.1763 0.0115 21.8788V22.5688C0.0115 22.7796 0.222333 22.9904 0.433167 22.9904H1.95692C2.11025 22.9904 2.29233 22.9137 2.34025 22.7413L3.32733 20.355C3.32733 20.355 3.404 20.4221 3.44233 20.4604V22.1567C3.44233 22.5975 3.8065 22.9617 4.24733 22.9617H12.6423C13.0832 22.9617 13.4473 22.5975 13.4473 22.1567V20.4892C13.5048 20.4412 13.5623 20.3933 13.6102 20.3454L13.7444 20.6713V20.7096C13.7444 20.7096 13.7444 20.8342 13.7923 20.8821L14.5494 22.7125C14.6357 22.8754 14.7602 22.9617 14.9327 22.9617H16.4948C16.6961 22.9617 16.9165 22.7988 16.9165 22.54V22.2333C16.9548 19.3008 16.8207 16.0138 16.5332 13.0046V12.995ZM16.0252 20.2017H14.4248L14.2427 19.78C14.2619 19.0517 14.2907 18.3138 14.3003 17.595C14.3098 17.0679 14.329 16.5696 14.329 16.0904H15.8815C15.9294 16.9817 15.9678 17.8921 15.9869 18.7929C15.9965 19.2338 16.0061 19.6938 16.0157 20.2017H16.0252ZM14.3482 11.7779C14.329 10.0433 14.2715 8.48125 14.1757 7.12042C14.1565 6.66042 14.1182 6.20042 14.0798 5.75958C14.6932 7.06292 15.1532 9.03708 15.4982 11.7779H14.3482ZM14.3482 12.6596H15.5748C15.6515 13.4742 15.7282 14.375 15.7952 15.2471H14.3386C14.3386 14.6721 14.3482 14.1067 14.3482 13.57C14.3482 13.2633 14.3482 12.9567 14.3482 12.6596ZM16.0252 22.1088H15.2107L14.789 21.045H16.0252C16.0252 21.4283 16.0252 21.7829 16.0252 22.1088ZM13.4761 11.8163H10.8598C11.0323 8.78792 11.6265 6.00875 12.5465 3.97708C12.6998 4.0825 12.9011 4.24542 13.0927 4.43708V4.50417C13.1119 4.60958 13.1215 4.70542 13.1311 4.83C13.1311 4.92583 13.1502 5.03125 13.1694 5.15583C13.2652 6.04708 13.3323 6.9575 13.3611 7.85833C13.4186 9.09458 13.4665 10.4267 13.4857 11.8163H13.4761ZM5.22483 2.28083C5.28233 2.17542 5.33983 2.07 5.42608 1.955C5.45483 1.91667 5.48358 1.87833 5.51233 1.84C6.05858 1.18833 6.95942 0.8625 8.27233 0.83375H8.28192C8.32983 0.83375 8.38733 0.83375 8.43525 0.83375C10.0357 0.83375 11.0898 1.27458 11.569 2.14667C11.5977 2.19458 11.6169 2.2425 11.6457 2.3C10.879 1.81125 9.70025 1.52375 8.44483 1.52375C7.18942 1.52375 6.03942 1.79208 5.22483 2.29042V2.28083ZM10.8119 13.7233C10.8119 13.3688 10.8119 13.0142 10.8311 12.6596H13.4761V15.2471H10.8502C10.8311 14.7392 10.8119 14.2217 10.8119 13.7233ZM3.45192 15.2471V12.6596H6.07775C6.07775 12.8417 6.08733 13.0142 6.09692 13.1962C6.09692 13.3879 6.11608 13.5796 6.11608 13.7617C6.11608 14.2217 6.1065 14.6912 6.08733 15.1512C6.08733 15.18 6.08733 15.2183 6.08733 15.2471H3.45192ZM8.44483 2.3575C10.0452 2.3575 11.5019 2.90375 11.7702 3.60333C10.7736 5.76917 10.1411 8.76875 9.97817 12.0463C9.94942 12.1038 9.93025 12.1708 9.93025 12.2283V13.7521C9.93025 13.8383 9.93025 13.9246 9.93025 14.0013C9.93025 14.4325 9.93983 14.8446 9.959 15.2375C9.959 15.3908 9.959 15.5346 9.959 15.6975C9.959 15.7454 9.959 15.7838 9.98775 15.8221C10.0932 17.5088 10.3232 19.0996 10.6777 20.5754H6.20233C6.67192 18.5917 6.93067 16.3108 6.94983 13.9917C6.94983 13.915 6.94983 13.8288 6.94983 13.7425C6.94983 13.2633 6.94983 12.8129 6.92108 12.3625C6.78692 8.95083 6.13525 5.83625 5.10983 3.58417C5.37817 2.88458 6.82525 2.33833 8.43525 2.33833L8.44483 2.3575ZM6.02983 16.0904C5.91483 17.6238 5.69442 19.1092 5.359 20.4892C5.09067 20.4221 4.83192 20.3263 4.58275 20.2017C4.554 20.1825 4.51567 20.1633 4.48692 20.1538L4.41025 20.1154C4.06525 19.9046 3.75858 19.6363 3.50942 19.32C3.47108 18.1988 3.44233 17.1158 3.42317 16.0904H6.01067H6.02983ZM4.28567 20.9971C4.41025 21.0546 4.54442 21.1121 4.669 21.16H4.67858C4.67858 21.16 4.74567 21.1887 4.784 21.1983H4.79358C5.22483 21.3517 5.68483 21.4188 6.14483 21.4188H10.764C11.4061 21.4188 12.0194 21.2846 12.5944 21.0067V22.0992H4.28567V20.9875V20.9971ZM13.4761 16.0904C13.4569 17.1254 13.4377 18.2179 13.3994 19.32C13.3802 19.3488 13.3515 19.3775 13.3323 19.4062C12.8723 19.9237 12.259 20.2879 11.5594 20.47C11.2336 19.1188 11.0036 17.6525 10.8886 16.1H13.4665L13.4761 16.0904ZM6.05858 11.8163H3.42317C3.45192 9.81333 3.519 8.04042 3.64358 6.555C3.72025 5.50083 3.79692 4.73417 3.83525 4.43708C4.06525 4.20708 4.2665 4.04417 4.40067 3.9675C5.3015 6.00875 5.89567 8.7975 6.06817 11.8163H6.05858ZM2.14858 21.045L1.69817 22.1088H0.854833V21.045H2.14858ZM2.67567 19.78L2.49358 20.2017H0.826083C0.826083 18.8408 0.84525 17.4608 0.912333 16.0904H2.58942V16.3396C2.60858 17.4417 2.64692 18.5917 2.68525 19.78H2.67567ZM2.57025 11.8163H1.26692C1.6215 9.00833 2.139 6.92875 2.829 5.62542C2.76192 6.39208 2.714 7.12042 2.68525 7.84875C2.62775 9.04667 2.58942 10.3788 2.57983 11.8163H2.57025ZM0.969833 15.2471C1.0465 14.375 1.11358 13.4742 1.19025 12.6596H2.56067V15.2471H0.969833Z" fill="#333333"/>
<path d="M3.82568 9.56424C3.82568 9.81341 3.99818 9.98591 4.24735 9.98591H5.01402C5.26318 9.98591 5.43568 9.81341 5.43568 9.56424C5.43568 9.31508 5.26318 9.14258 5.01402 9.14258H4.24735C3.99818 9.14258 3.82568 9.31508 3.82568 9.56424Z" fill="#333333"/>
<path d="M7.67801 5.4051H9.20176C9.45093 5.4051 9.62343 5.2326 9.62343 4.98343C9.62343 4.73427 9.45093 4.56177 9.20176 4.56177H7.67801C7.42885 4.56177 7.25635 4.73427 7.25635 4.98343C7.25635 5.2326 7.42885 5.4051 7.67801 5.4051Z" fill="#333333"/>
</svg>
