<svg width="17" height="23" viewBox="0 0 17 23" fill="none" xmlns="http://www.w3.org/2000/svg">
<path d="M16.6479 13.0046C16.2934 9.12333 15.5842 6.34417 14.53 4.73417C14.4534 4.6575 14.0029 4.13042 13.84 3.93875C13.8017 3.90042 13.7538 3.87167 13.7059 3.84292C13.3034 3.45 12.9775 3.21042 12.6804 3.105C12.7092 2.67375 12.575 2.185 12.3259 1.75375C11.7125 0.60375 10.3709 0 8.45418 0C6.53752 0 5.19585 0.60375 4.58252 1.75375C4.34293 2.16583 4.19918 2.65458 4.1896 3.11458C3.89252 3.23917 3.5571 3.49792 3.0971 3.95792C3.02043 4.05375 2.94377 4.13042 2.85752 4.21667C2.77127 4.30292 2.68502 4.38917 2.59877 4.49458C2.53168 4.6 2.4646 4.66708 2.41668 4.715H2.4071C1.38168 6.34417 0.672517 9.1425 0.317934 13.0046C0.0687673 15.4771 -0.0366494 18.3713 0.0112673 21.85V22.54C0.0112673 22.77 0.231684 22.9904 0.461684 22.9904H1.98543C2.15793 22.9904 2.3496 22.9042 2.39752 22.7125L3.35585 20.3933C3.35585 20.3933 3.41335 20.4413 3.4421 20.4604V22.1471C3.4421 22.6071 3.81585 22.9808 4.27585 22.9808H12.6517C13.1117 22.9808 13.4854 22.6071 13.4854 22.1471V20.4988C13.4854 20.4988 13.5621 20.4317 13.61 20.3933L14.3767 22.2333L14.5396 22.7125C14.6259 22.885 14.7696 22.9808 14.9517 22.9808H16.5138C16.7342 22.9808 16.9642 22.8083 16.9642 22.5304V21.85C17.0217 19.7417 17.0217 16.4929 16.6575 13.0046H16.6479ZM16.025 21.0833C16.025 21.3708 16.0154 21.6296 16.0059 21.8883V22.08H15.2488L14.8463 21.0833H16.0154H16.025ZM14.2521 19.6267C14.2713 19.5692 14.2809 19.5308 14.2809 19.4829C14.4246 15.1513 14.4054 11.2221 14.2425 7.82C14.2234 7.14917 14.185 6.50708 14.1275 5.85542C14.8654 7.33125 15.4021 9.775 15.7375 13.1196C15.9388 15.3621 16.0442 17.8058 16.0346 20.2017H14.415L14.2521 19.7992V19.6171V19.6267ZM4.34293 21.0546C4.45793 21.1121 4.57293 21.16 4.69752 21.1983C4.73585 21.2079 4.7646 21.2271 4.80293 21.2367H4.81252C5.24377 21.39 5.70377 21.4571 6.17335 21.4571H10.7829C11.4154 21.4571 12.0192 21.3229 12.575 21.0642V22.0704H4.35252V21.045L4.34293 21.0546ZM11.2813 20.5179C11.2813 20.5179 11.2334 20.5179 11.2046 20.5275H11.1663C11.1663 20.5275 11.0896 20.5371 11.0513 20.5467H11.0321C11.0321 20.5467 10.965 20.5467 10.9267 20.5467H10.8979C10.8979 20.5467 10.8213 20.5467 10.7829 20.5467H6.18293C6.18293 20.5467 6.10627 20.5467 6.06793 20.5467H6.03918C6.03918 20.5467 5.9721 20.5467 5.93377 20.5467H5.92418C5.92418 20.5467 5.84752 20.5467 5.80918 20.5371H5.79002C5.79002 20.5371 5.70377 20.5275 5.66543 20.5179C5.31085 20.4604 4.96585 20.3454 4.6496 20.1825C4.62085 20.1633 4.58252 20.1442 4.55377 20.1346L4.4771 20.0963C4.14168 19.895 3.8446 19.6267 3.59543 19.32C3.53793 17.4608 3.4996 15.6496 3.4996 13.9533C3.4996 11.8737 3.54752 9.90917 3.63377 8.1075C3.70085 6.50708 3.82543 5.12708 3.91168 4.50417C4.12252 4.30292 4.3046 4.14 4.43877 4.05375C4.5346 4.20708 4.6496 4.37958 4.80293 4.57125C5.30127 5.19417 5.89543 5.51042 6.57585 5.51042C6.84418 5.51042 7.02627 5.32833 7.02627 5.06C7.02627 4.79167 6.84418 4.60958 6.57585 4.60958C6.2021 4.60958 5.83793 4.40833 5.49293 4.025C5.38752 3.88125 5.27252 3.72792 5.19585 3.58417C5.15752 3.5075 5.13835 3.45958 5.12877 3.41167V3.3925C5.10002 2.99 5.19585 2.5875 5.38752 2.2425C5.8571 1.34167 6.87294 0.910417 8.48293 0.910417C10.0929 0.910417 11.1088 1.34167 11.5784 2.20417C11.7796 2.57792 11.8754 3.00917 11.8371 3.41167C11.7509 3.565 11.5592 3.88125 11.4729 3.98667C11.1279 4.37958 10.7542 4.57125 10.3804 4.57125C10.1121 4.57125 9.93002 4.75333 9.93002 5.02167C9.93002 5.29 10.1121 5.47208 10.3804 5.47208C11.0513 5.47208 11.655 5.15583 12.1534 4.53292C12.3259 4.33167 12.4504 4.14958 12.5271 4.00583C12.6804 4.10167 12.8913 4.27417 13.0925 4.47542C13.0925 4.59042 13.1309 4.945 13.1692 5.175C13.265 6.06625 13.3225 6.97667 13.3609 7.8775C13.5238 11.2029 13.5429 15.0458 13.3992 19.3104C12.9104 19.9429 12.1917 20.3646 11.3963 20.5083L11.3004 20.5275L11.2813 20.5179ZM2.1196 21.0833L1.69793 22.08H0.960017V21.0833H2.13877H2.1196ZM2.57002 14.8063C2.57002 16.4067 2.60835 18.0837 2.66585 19.78L2.50293 20.1825H0.931267C0.921684 17.7867 1.01752 15.3429 1.22835 13.1004C1.55418 9.84208 2.09085 7.42708 2.80002 5.91292C2.74252 6.58375 2.70418 7.22583 2.68502 7.86792C2.59877 10.0721 2.57002 12.4104 2.58918 14.8063H2.57002Z" fill="#333333"/>
<path d="M7.89833 4.70538H9.03875C9.26875 4.70538 9.51792 4.59038 9.70958 4.40829L10.62 3.22954C10.8117 2.98038 10.85 2.64496 10.7062 2.35746C10.5625 2.06996 10.2846 1.89746 9.94917 1.89746H6.97833C6.6525 1.89746 6.365 2.06996 6.22125 2.35746C6.0775 2.64496 6.11583 2.98038 6.3075 3.22954L7.21792 4.36996C7.38083 4.58079 7.63 4.70538 7.88875 4.70538H7.89833ZM7.13167 2.79829H9.80542L9.01 3.79496H7.93667L7.14125 2.79829H7.13167Z" fill="#333333"/>
<path d="M7.32346 9.2767C7.5918 9.2767 7.77388 9.09462 7.77388 8.82629V5.77879C7.77388 5.51045 7.5918 5.32837 7.32346 5.32837C7.05513 5.32837 6.87305 5.51045 6.87305 5.77879V8.82629C6.87305 9.09462 7.05513 9.2767 7.32346 9.2767Z" fill="#333333"/>
<path d="M9.15381 5.77879V8.82629C9.15381 9.09462 9.33589 9.2767 9.60423 9.2767C9.87256 9.2767 10.0546 9.09462 10.0546 8.82629V5.77879C10.0546 5.51045 9.87256 5.32837 9.60423 5.32837C9.33589 5.32837 9.15381 5.51045 9.15381 5.77879Z" fill="#333333"/>
<path d="M12.278 17.5087C11.4922 17.5087 10.8309 16.4928 10.8309 15.2949C10.8309 15.0266 10.6489 14.8445 10.3805 14.8445H6.57594C6.30761 14.8445 6.12553 15.0266 6.12553 15.2949C6.12553 16.4928 5.46428 17.5087 4.67844 17.5087C4.41011 17.5087 4.22803 17.6907 4.22803 17.9591V19.4828C4.22803 19.7511 4.41011 19.9332 4.67844 19.9332H12.2972C12.5655 19.9332 12.7476 19.7511 12.7476 19.4828V17.9591C12.7476 17.6907 12.5655 17.5087 12.2972 17.5087H12.278ZM11.8276 18.3616V19.0324H8.92386V15.7453H9.93011C10.1026 17.0582 10.8597 18.1028 11.8276 18.3616ZM8.02303 15.7453V19.0324H5.11928V18.3616C6.08719 18.1028 6.84428 17.0678 7.01678 15.7453H8.02303Z" fill="#333333"/>
</svg>
