<svg width="23" height="16" viewBox="0 0 23 16" fill="none" xmlns="http://www.w3.org/2000/svg">
<path d="M21.0067 11.8162H17.6525V6.11417C17.6525 2.74083 14.9117 0 11.5383 0H6.54542C2.9325 0 0 2.9325 0 6.54542V15.18C0 15.525 0.2875 15.8125 0.6325 15.8125H21.0067C22.1087 15.8125 23 14.9117 23 13.8192C23 12.7267 22.0992 11.8258 21.0067 11.8258V11.8162ZM6.30583 3.9675C6.30583 2.4725 7.52292 1.265 9.00833 1.265H11.5383C14.2121 1.265 16.3875 3.44042 16.3875 6.11417V11.8258H8.99875V5.55833C8.99875 5.21333 8.71125 4.92583 8.36625 4.92583C8.02125 4.92583 7.73375 5.21333 7.73375 5.55833V11.8258H6.30583V3.9675ZM1.265 6.54542C1.265 3.78542 3.3925 1.51417 6.095 1.28417C6.095 1.28417 6.095 1.28417 6.095 1.29375C6.07583 1.31292 6.05667 1.33208 6.04708 1.35125C6.02792 1.38 5.99917 1.40875 5.98 1.42792C5.96083 1.44708 5.94167 1.47583 5.93208 1.495C5.91292 1.52375 5.89375 1.5525 5.865 1.57167C5.84583 1.59083 5.82667 1.61958 5.81708 1.63875C5.79792 1.6675 5.77875 1.69625 5.75958 1.725C5.74042 1.74417 5.73083 1.77292 5.71167 1.80167C5.6925 1.83042 5.67333 1.85917 5.65417 1.88792C5.635 1.91667 5.62542 1.93583 5.60625 1.96458C5.58708 1.99333 5.5775 2.02208 5.55833 2.05083C5.53917 2.07958 5.52958 2.09875 5.52 2.1275C5.50083 2.15625 5.49125 2.185 5.47208 2.21375C5.4625 2.2425 5.44333 2.27125 5.43375 2.29042C5.42417 2.31917 5.405 2.34792 5.39542 2.37667C5.38583 2.40542 5.37625 2.43417 5.35708 2.46292C5.3475 2.49167 5.32833 2.52042 5.31875 2.55875C5.30917 2.5875 5.29958 2.61625 5.29 2.645C5.28042 2.67375 5.27083 2.71208 5.26125 2.74083C5.26125 2.76958 5.24208 2.79833 5.2325 2.82708C5.22292 2.85583 5.21333 2.89417 5.20375 2.92292C5.20375 2.95167 5.18458 2.98042 5.18458 3.00917C5.18458 3.0475 5.16542 3.07625 5.16542 3.11458C5.16542 3.14333 5.15583 3.17208 5.14625 3.20083C5.14625 3.23917 5.13667 3.26792 5.12708 3.30625C5.12708 3.335 5.1175 3.36375 5.1175 3.3925C5.1175 3.43083 5.10792 3.46917 5.09833 3.5075C5.09833 3.53625 5.09833 3.55542 5.09833 3.58417C5.09833 3.6225 5.09833 3.67042 5.08875 3.71833C5.08875 3.7375 5.08875 3.76625 5.08875 3.78542C5.08875 3.8525 5.08875 3.91958 5.08875 3.98667V11.8162H1.265V6.54542ZM21.0067 14.5571H1.265V13.0908H21.0067C21.4092 13.0908 21.7446 13.4167 21.7446 13.8287C21.7446 14.2408 21.4187 14.5667 21.0067 14.5667V14.5571Z" fill="#333333"/>
<path d="M12.3529 4.9353C11.0496 4.9353 9.98584 5.99905 9.98584 7.30239C9.98584 8.60572 11.0496 9.66947 12.3529 9.66947C13.6563 9.66947 14.72 8.60572 14.72 7.30239C14.72 5.99905 13.6563 4.9353 12.3529 4.9353ZM12.3529 8.40447C11.7492 8.40447 11.2508 7.90614 11.2508 7.30239C11.2508 6.69864 11.7492 6.2003 12.3529 6.2003C12.9567 6.2003 13.455 6.69864 13.455 7.30239C13.455 7.90614 12.9567 8.40447 12.3529 8.40447Z" fill="#333333"/>
<path d="M8.97941 3.53633C8.97941 3.53633 8.96025 3.45966 8.94108 3.42133C8.92191 3.38299 8.90275 3.34466 8.88358 3.31591C8.86441 3.27758 8.83566 3.24883 8.80691 3.22008C8.77816 3.19133 8.74941 3.16258 8.71108 3.14341C8.67275 3.12424 8.644 3.10508 8.60566 3.08591C8.56733 3.06674 8.529 3.05716 8.49066 3.04758C8.40441 3.02841 8.32775 3.02841 8.2415 3.04758C8.20316 3.04758 8.16483 3.06674 8.1265 3.08591C8.08816 3.10508 8.04983 3.12424 8.02108 3.14341C7.98275 3.16258 7.954 3.19133 7.92525 3.22008C7.8965 3.24883 7.86775 3.27758 7.84858 3.31591C7.82941 3.35424 7.81025 3.38299 7.79108 3.42133C7.77191 3.45966 7.76233 3.49799 7.75275 3.53633C7.75275 3.57466 7.74316 3.62258 7.74316 3.66091C7.74316 3.69924 7.74316 3.74716 7.75275 3.78549C7.75275 3.82383 7.77191 3.86216 7.79108 3.90049C7.81025 3.93883 7.82941 3.97716 7.84858 4.00591C7.86775 4.04424 7.8965 4.07299 7.92525 4.10175C7.954 4.13049 7.98275 4.15924 8.02108 4.17841C8.05941 4.19758 8.08816 4.21674 8.1265 4.23591C8.16483 4.25508 8.20316 4.26466 8.2415 4.27424C8.27983 4.27424 8.32775 4.28383 8.36608 4.28383C8.40441 4.28383 8.45233 4.28383 8.49066 4.27424C8.529 4.27424 8.56733 4.25508 8.60566 4.23591C8.644 4.21674 8.68233 4.19758 8.71108 4.17841C8.74941 4.15924 8.77816 4.13049 8.80691 4.10175C8.83566 4.07299 8.86441 4.04424 8.88358 4.00591C8.90275 3.96758 8.92191 3.93883 8.94108 3.90049C8.96025 3.86216 8.96983 3.82383 8.97941 3.78549C8.97941 3.74716 8.989 3.69924 8.989 3.66091C8.989 3.62258 8.989 3.57466 8.97941 3.53633Z" fill="#333333"/>
</svg>
