<svg width="60" height="64" viewBox="0 0 60 64" fill="none" xmlns="http://www.w3.org/2000/svg">
<g clip-path="url(#clip0_343_1643)">
<path d="M28.84 58.7C19.86 34.46 25.66 40.26 1.41998 31.28C25.66 22.3 19.86 28.1 28.84 3.86C37.82 28.1 32.02 22.3 56.26 31.28C32.02 40.26 37.82 34.46 28.84 58.7Z" fill="#FFDEBC"/>
<path d="M41.69 63.56C41.13 57.55 41.02 56.49 40.88 55.61C40.76 54.94 40.59 54.46 40.46 54.39C40.38 54.26 39.91 54.09 39.24 53.97C38.37 53.82 37.3 53.72 31.29 53.16C37.3 52.6 38.36 52.49 39.24 52.35C39.91 52.23 40.39 52.06 40.46 51.93C40.59 51.85 40.76 51.38 40.88 50.71C41.03 49.84 41.13 48.77 41.69 42.76C42.25 48.77 42.36 49.83 42.5 50.71C42.62 51.38 42.79 51.86 42.92 51.93C43 52.06 43.48 52.23 44.14 52.35C45.01 52.5 46.08 52.6 52.09 53.16C46.08 53.72 45.02 53.83 44.14 53.97C43.47 54.09 42.99 54.26 42.92 54.39C42.79 54.47 42.62 54.94 42.5 55.61C42.35 56.48 42.25 57.55 41.69 63.56Z" fill="#FFDEBC"/>
<path d="M11.82 21.88C11.52 18.68 11.46 18.11 11.39 17.65C11.32 17.29 11.24 17.04 11.17 17C11.13 16.93 10.88 16.84 10.52 16.78C10.05 16.7 9.48998 16.65 6.28998 16.35C9.48998 16.05 10.06 15.99 10.52 15.92C10.88 15.86 11.13 15.77 11.17 15.7C11.24 15.66 11.33 15.4 11.39 15.05C11.47 14.59 11.52 14.02 11.82 10.82C12.12 14.02 12.18 14.59 12.26 15.05C12.32 15.41 12.41 15.66 12.48 15.7C12.52 15.77 12.77 15.86 13.13 15.92C13.59 16 14.16 16.05 17.36 16.35C14.16 16.65 13.59 16.71 13.13 16.78C12.77 16.84 12.52 16.93 12.48 17C12.41 17.04 12.32 17.29 12.26 17.65C12.18 18.12 12.13 18.68 11.82 21.88Z" fill="#FFDEBC"/>
<path d="M8.34 52.48C7.89 47.67 7.8 46.81 7.69 46.11C7.59 45.57 7.46 45.19 7.35 45.13C7.29 45.02 6.91 44.89 6.37 44.79C5.67 44.67 4.82 44.59 0 44.14C4.81 43.69 5.67 43.6 6.37 43.49C6.91 43.39 7.29 43.26 7.35 43.16C7.46 43.1 7.59 42.72 7.69 42.18C7.81 41.48 7.89 40.63 8.34 35.81C8.79 40.62 8.87 41.48 8.99 42.18C9.09 42.72 9.22 43.1 9.32 43.16C9.38 43.27 9.76 43.4 10.3 43.49C11 43.61 11.85 43.69 16.67 44.14C11.86 44.59 11 44.68 10.3 44.79C9.76 44.89 9.38 45.02 9.32 45.13C9.21 45.19 9.08 45.57 8.99 46.11C8.87 46.81 8.79 47.66 8.34 52.48Z" fill="#FFDEBC"/>
<path d="M18.08 58.7C17.86 56.3 17.81 55.88 17.75 55.53C17.7 55.26 17.64 55.07 17.58 55.04C17.55 54.99 17.36 54.92 17.09 54.87C16.74 54.81 16.32 54.77 13.92 54.54C16.32 54.32 16.74 54.27 17.09 54.22C17.36 54.17 17.55 54.1 17.58 54.05C17.63 54.02 17.7 53.83 17.75 53.56C17.81 53.21 17.85 52.79 18.08 50.39C18.3 52.79 18.35 53.21 18.41 53.56C18.46 53.83 18.52 54.02 18.58 54.05C18.61 54.1 18.8 54.17 19.07 54.22C19.42 54.28 19.84 54.32 22.24 54.54C19.84 54.77 19.42 54.81 19.07 54.87C18.8 54.92 18.61 54.98 18.58 55.04C18.53 55.07 18.46 55.26 18.41 55.53C18.35 55.88 18.31 56.3 18.08 58.7Z" fill="#FFDEBC"/>
<path d="M48.64 46.89C48.42 44.49 48.37 44.07 48.31 43.72C48.26 43.45 48.2 43.26 48.14 43.23C48.11 43.18 47.92 43.11 47.65 43.06C47.3 43 46.88 42.96 44.48 42.73C46.88 42.51 47.3 42.46 47.65 42.41C47.92 42.36 48.11 42.29 48.14 42.24C48.19 42.21 48.26 42.02 48.31 41.75C48.37 41.4 48.41 40.97 48.64 38.58C48.87 40.98 48.91 41.4 48.97 41.75C49.02 42.02 49.08 42.21 49.14 42.24C49.17 42.29 49.36 42.36 49.63 42.41C49.98 42.47 50.4 42.51 52.8 42.73C50.4 42.96 49.98 43 49.63 43.06C49.36 43.11 49.17 43.18 49.14 43.23C49.09 43.26 49.02 43.45 48.97 43.72C48.91 44.07 48.87 44.49 48.64 46.89Z" fill="#FFDEBC"/>
<path d="M42.47 13.13L33.35 12.85L42.47 12.57C44.75 12.19 45.54 11.4 45.91 9.13L46.19 0L46.47 9.13C46.84 11.4 47.64 12.2 49.91 12.57L59.03 12.85L49.91 13.13C47.63 13.51 46.84 14.3 46.47 16.57L46.19 25.7L45.91 16.57C45.53 14.3 44.74 13.5 42.47 13.13Z" fill="#FFDEBC"/>
</g>
<defs>
<clipPath id="clip0_343_1643">
<rect width="59.04" height="63.56" fill="white"/>
</clipPath>
</defs>
</svg>
