<svg width="19" height="23" viewBox="0 0 19 23" fill="none" xmlns="http://www.w3.org/2000/svg">
<path d="M17.7495 7.2678C17.1367 4.57713 16.4377 3.34191 16.409 3.29403L16.3898 3.26531L16.3611 3.23658C14.9823 1.99178 12.8565 1.12043 12.4448 0.957645C12.3012 0.900193 12.1288 0.919344 11.9948 1.00552L11.9756 1.02467C11.8799 1.11085 11.2958 1.52259 9.49559 1.52259C7.69542 1.52259 7.1209 1.11085 7.01557 1.02467L6.99642 1.00552C6.86237 0.919344 6.69959 0.900193 6.54638 0.957645H6.51766C5.89526 1.2066 3.76953 2.06839 2.61091 3.24615C2.53431 3.32276 1.85446 4.52925 1.24164 7.2678C0.67669 9.73825 0.0734428 14.0089 0.370279 20.3094V21.6117C0.370279 21.8798 0.590512 22.0905 0.849046 22.0905H3.20458C3.43439 22.0905 3.63547 21.9277 3.67378 21.6979L3.91316 20.4052L4.19084 19.2178L4.42065 20.5488C4.45895 20.7786 4.66004 20.951 4.89942 20.951H14.0726C14.3024 20.951 14.5035 20.7786 14.5514 20.5488L14.7812 19.2274L15.0589 20.4052L15.2983 21.7074C15.3366 21.9372 15.5376 22.1 15.777 22.1H18.1326C18.4007 22.1 18.6113 21.8798 18.6113 21.6213V20.3286C18.9082 14.0184 18.2953 9.74782 17.74 7.27738L17.7495 7.2678ZM17.6538 20.7882V21.1329H16.1792L16.1122 20.7882H17.6442H17.6538ZM13.747 19.5913L13.68 19.9934H5.31116L5.24413 19.5913H13.7566H13.747ZM2.86945 20.7882L2.80242 21.1329H1.32781V20.7882H2.85987H2.86945ZM9.49559 3.05465C8.71999 3.05465 7.99226 2.76739 7.57094 2.29819C8.09759 2.42267 8.73914 2.4897 9.49559 2.4897C10.252 2.4897 10.8936 2.42267 11.4202 2.29819C10.9989 2.76739 10.2712 3.05465 9.49559 3.05465ZM15.1355 3.43766C14.628 3.80153 14.0439 4.49095 14.0439 5.70702C14.0439 6.13791 14.1109 6.86564 14.1971 7.78487C14.4269 10.284 14.762 14.0567 14.312 17.0442C14.2833 17.2166 14.1109 18.1071 13.9673 18.6242H5.0239C4.88027 18.1071 4.70791 17.2166 4.67919 17.0442C4.22915 14.0663 4.57386 10.2936 4.79409 7.78487C4.88027 6.85606 4.93772 6.13791 4.93772 5.70702C4.93772 4.49095 4.35363 3.8111 3.84613 3.43766C4.61216 2.88229 5.7229 2.35565 6.3453 2.07796C6.56553 2.74824 7.10175 3.30361 7.86778 3.65789C7.89651 3.66747 8.69126 3.96431 9.48602 3.96431C10.2808 3.96431 11.1138 3.64832 11.1234 3.64832C11.8703 3.29403 12.4065 2.73866 12.6267 2.06839C13.2491 2.34607 14.3599 2.87272 15.1259 3.42809L15.1355 3.43766ZM3.98019 5.70702C3.98019 6.09961 3.91316 6.80819 3.83656 7.69869C3.60675 10.217 3.26204 14.0184 3.71208 17.1017L3.07053 19.8115H1.31824C1.07885 13.8652 1.65338 9.84357 2.18002 7.50719C2.57261 5.76447 3.0035 4.67288 3.23331 4.15581C3.5876 4.38562 3.98976 4.83566 3.98976 5.69745L3.98019 5.70702ZM15.011 5.70702C15.011 4.84524 15.4132 4.3952 15.7674 4.16539C16.6963 6.19536 17.2995 9.15415 17.5676 12.9651C17.7878 16.0101 17.7112 18.7391 17.6729 19.8115H15.9207L15.2791 17.1017C15.7291 14.0184 15.3844 10.2074 15.1546 7.68912C15.078 6.79861 15.011 6.09003 15.011 5.70702Z" fill="#333333"/>
</svg>
